<svg width="106" height="23" viewBox="0 0 106 23" fill="none" xmlns="http://www.w3.org/2000/svg">
<g clip-path="url(#clip0_5213_252)">
<path d="M12.4457 22.6083L12.5427 22.2916C12.327 22.1688 12.1178 22.035 11.9159 21.8906C11.5276 21.595 11.1766 21.2605 10.9274 20.832C10.7932 20.602 10.8005 20.3785 10.9736 20.1784C11.1084 20.0264 11.2529 19.8833 11.4063 19.75C11.7137 19.4754 12.0461 19.2267 12.3332 18.9327C12.7158 18.5399 12.77 18.0823 12.495 17.6109C12.3303 17.3448 12.1392 17.096 11.9248 16.8682C11.5333 16.4332 11.1208 16.0185 10.7244 15.5884C10.4494 15.2912 10.3847 14.9405 10.4494 14.5404C10.5138 14.1656 10.5514 13.7866 10.5618 13.4065C10.574 12.6645 10.0604 12.2199 9.45452 12.0498C9.31621 12.0101 9.24665 11.9558 9.23451 11.8181C9.23047 11.772 9.2151 11.7258 9.20863 11.6796C9.11561 11.0228 8.7492 10.5967 8.1183 10.4007C7.89505 10.3319 7.66695 10.276 7.43967 10.2201C7.14039 10.1464 6.83707 10.0881 6.58794 9.88642C6.44963 9.77384 6.37279 9.64829 6.44478 9.46444C6.46437 9.3995 6.47897 9.33316 6.48845 9.266C6.52131 9.13568 6.51479 8.99853 6.46972 8.87193C6.42465 8.74533 6.34306 8.63498 6.23528 8.55486C6.03042 8.38257 5.77457 8.28266 5.50731 8.27057C5.12473 8.24871 4.76317 8.35562 4.39837 8.4439C3.95836 8.55163 3.524 8.60103 3.10421 8.35886C2.89714 8.23818 2.68279 8.12802 2.47977 8.00005C2.17483 7.80647 1.88203 7.59508 1.67092 7.2954C1.49701 7.05241 1.51642 6.87746 1.75746 6.70332C1.92257 6.59435 2.095 6.49693 2.27351 6.41174C2.54933 6.26595 2.83971 6.14203 3.1034 5.97761C3.56687 5.69089 3.91225 5.29564 3.95593 4.73191C3.9802 4.43385 3.93247 4.1285 3.8985 3.82963C3.85644 3.4603 3.79416 3.09501 3.88071 2.72405C3.90497 2.61876 3.93328 2.5572 4.05623 2.6058C4.218 2.66817 4.37977 2.71919 4.54154 2.78237C4.90957 2.92816 5.26951 3.10068 5.64482 3.22055C5.9724 3.32422 6.3097 3.29669 6.55559 3.01644C6.8581 2.67141 6.98671 2.26724 6.85972 1.80881C6.82576 1.69355 6.78275 1.58116 6.73111 1.47268C6.71902 1.45537 6.71102 1.43552 6.70772 1.41465C6.70442 1.39378 6.7059 1.37243 6.71206 1.35222C6.71822 1.33201 6.72889 1.31346 6.74326 1.29799C6.75763 1.28252 6.77532 1.27052 6.79501 1.26291C6.98266 1.173 7.16708 1.05232 7.36606 1.01992C7.85137 0.932449 8.41272 0.974566 8.58986 1.64682C8.58986 1.65654 8.59471 1.66707 8.59876 1.67679C8.69219 1.94254 8.80021 2.20293 8.9223 2.45677C8.98943 2.58474 9.1237 2.7281 9.25312 2.75969C9.52991 2.83442 9.81732 2.8618 10.1032 2.84069C10.5377 2.78786 10.9678 2.70367 11.3901 2.58879C12.1643 2.3929 12.9166 2.11881 13.6355 1.77075C13.7374 1.72134 13.7973 1.72539 13.8312 1.85174C13.9671 2.33771 14.0941 2.83016 14.0488 3.34609C13.9914 3.98919 14.4274 4.31317 14.8472 4.48569C14.9514 4.53032 15.066 4.54538 15.1782 4.52924C15.2905 4.5131 15.3962 4.46637 15.4837 4.39417C15.6326 4.28077 15.762 4.14308 15.9059 4.0224C15.9454 3.98475 15.9971 3.9626 16.0515 3.96003C16.7116 4.02645 16.9081 4.11392 17.0383 4.77889C17.0589 4.91732 17.1187 5.04692 17.2108 5.15219C17.3029 5.25747 17.4233 5.33398 17.5576 5.37258C17.6996 5.42431 17.8474 5.45857 17.9976 5.47463C18.5396 5.50433 19.0818 5.52539 19.6243 5.53781C20.1905 5.55077 20.7526 5.56049 21.3034 5.6998C21.8543 5.83911 22.3234 6.10477 22.5774 6.64582C22.7412 6.98969 22.8032 7.37334 22.7561 7.7514H22.9503C23.0229 7.24567 22.918 6.73038 22.6534 6.29349C22.3533 5.78484 21.8607 5.53781 21.3115 5.38959C20.6919 5.22274 20.0554 5.19844 19.4188 5.16847C18.9715 5.14742 18.5234 5.11745 18.0769 5.07371C17.6102 5.02754 17.5204 4.93359 17.4185 4.47597C17.3045 3.96003 16.9995 3.63362 16.4713 3.53724C16.3322 3.51213 16.1931 3.49269 16.054 3.46839C15.9769 3.45329 15.8972 3.45751 15.8222 3.48069C15.7471 3.50387 15.6789 3.54527 15.6237 3.60123C15.509 3.71557 15.3883 3.82371 15.2621 3.9252C15.195 3.97862 15.1096 4.00362 15.0243 3.99486C14.7008 3.9082 14.539 3.63605 14.5802 3.29912C14.604 3.14961 14.6073 2.99755 14.5899 2.84716C14.522 2.43571 14.4484 2.02426 14.3473 1.6201C14.2429 1.19892 13.8361 1.02802 13.4389 1.21512C12.5807 1.60729 11.6798 1.89812 10.7544 2.08176C10.3968 2.15466 10.0434 2.25023 9.6713 2.18382C9.61266 2.18123 9.55631 2.16031 9.51018 2.12399C9.46404 2.08766 9.43043 2.03777 9.41408 1.98133C9.29599 1.64196 9.15929 1.30826 9.01855 0.976996C8.92597 0.762633 8.75406 0.59252 8.5389 0.502367C7.76644 0.159759 7.01825 0.216455 6.28705 0.772889C6.16652 0.859164 6.07617 0.981255 6.02884 1.12184C5.98151 1.26243 5.97959 1.41437 6.02336 1.55611C6.05508 1.67717 6.09702 1.79531 6.14873 1.90925C6.19134 1.9968 6.2076 2.09486 6.19553 2.1915C6.18347 2.28814 6.1436 2.37918 6.08079 2.45353C6.05958 2.47967 6.03264 2.50058 6.00206 2.51462C5.97148 2.52867 5.93809 2.53548 5.90446 2.53453C5.7081 2.48469 5.51541 2.42136 5.32775 2.345C4.9945 2.21055 4.67338 2.04127 4.33447 1.92626C3.70357 1.71243 3.29914 1.96027 3.16083 2.60985C3.06053 3.07962 3.10987 3.54696 3.19237 4.01106C3.33149 4.78861 3.17943 5.12555 2.4822 5.49569C2.20638 5.64229 1.916 5.75974 1.63694 5.90067C1.33605 6.0578 1.07075 6.26433 0.922726 6.58021C0.711615 7.02892 0.853164 7.42742 1.13465 7.79027C1.42354 8.15049 1.78305 8.44763 2.19101 8.6634C2.54512 8.87415 2.91831 9.05097 3.30561 9.19148C3.7707 9.34375 4.24388 9.20687 4.70978 9.1032C4.97764 9.04059 5.25046 9.00156 5.52511 8.98657C5.75725 8.97685 5.82358 9.09024 5.76776 9.31055C5.66019 9.71552 5.74916 10.067 6.07108 10.3278C6.26992 10.4947 6.49518 10.6272 6.73758 10.7199C7.10884 10.8511 7.50195 10.9215 7.88454 11.0244C8.25176 11.124 8.50493 11.3362 8.56074 11.7371C8.57368 11.8295 8.6028 11.9202 8.62059 12.0125C8.69258 12.3843 8.88105 12.6095 9.2879 12.6653C9.60497 12.7091 9.97381 12.9723 9.95197 13.4194C9.94286 13.753 9.91586 14.0858 9.87108 14.4165C9.77726 15.0012 9.88888 15.5212 10.2965 15.9554C10.6201 16.3061 10.9711 16.639 11.2995 16.9897C11.5622 17.2578 11.81 17.5401 12.042 17.8352C12.237 18.0936 12.2135 18.3107 12.0113 18.5642C11.8995 18.7019 11.777 18.8306 11.6449 18.9489C11.3707 19.1992 11.0787 19.4284 10.8134 19.6884C10.3281 20.1679 10.2941 20.6668 10.7002 21.2143C11.0289 21.6491 11.434 22.0202 11.8956 22.3094C12.0713 22.4226 12.2552 22.5225 12.4457 22.6083V22.6083Z" fill="white"/>
<path d="M15.2399 17.3818V11.8808H13.2522V10.2779H19.0437V11.8808H17.068V17.3878L15.2399 17.3818Z" fill="white"/>
<path d="M23.8692 17.3818L22.6783 14.9947H21.7469V17.3818H19.9153V10.2779H23.4655C25.0375 10.2779 25.9307 11.321 25.9307 12.6423C25.9307 13.8776 25.1756 14.5376 24.5171 14.7715L25.9629 17.3818H23.8692ZM24.0705 12.6315C24.0705 12.1541 23.6667 11.8748 23.188 11.8748H21.7469V13.3978H23.188C23.6667 13.3978 24.0705 13.1316 24.0705 12.6315V12.6315Z" fill="white"/>
<path d="M31.7512 17.3818L31.401 16.3589H28.6095L28.2581 17.3818H26.1859L28.8536 10.2779H31.1485L33.827 17.3818H31.7512ZM29.9981 12.0885L29.0942 14.7608H30.9008L29.9981 12.0885Z" fill="white"/>
<path d="M34.3484 17.3818V10.2779H38.3655C39.7684 10.2779 40.4377 11.1933 40.4377 12.0885C40.4377 12.9836 39.8958 13.5685 39.2253 13.7176C39.9804 13.837 40.5759 14.5591 40.5759 15.453C40.5759 16.4866 39.8851 17.3818 38.4929 17.3818H34.3484ZM38.5775 12.4072C38.5775 12.067 38.3226 11.8223 37.951 11.8223H36.1753V13.0039H37.951C38.0322 13.0099 38.1137 12.9989 38.1904 12.9714C38.267 12.944 38.3371 12.9008 38.3961 12.8446C38.4551 12.7884 38.5017 12.7204 38.533 12.6451C38.5642 12.5697 38.5793 12.4887 38.5775 12.4072V12.4072ZM38.7156 15.1976C38.7156 14.8467 38.4607 14.5591 38.0141 14.5591H36.1753V15.8374H38.0141C38.45 15.8374 38.7156 15.5807 38.7156 15.1976V15.1976Z" fill="white"/>
<path d="M46.3887 17.3818L46.0422 16.3589H43.2435L42.8862 17.3818H40.814L43.4817 10.2779H45.7778L48.455 17.3818H46.3887ZM44.6357 12.0885L43.7318 14.7608H45.5384L44.6357 12.0885Z" fill="white"/>
<path d="M48.9825 17.3818V10.2779H50.8059V15.7836H53.6641V17.3818H48.9825Z" fill="white"/>
<path d="M59.381 17.3818V14.5269H56.4322V17.3818H54.6041V10.2779H56.4322V12.9299H59.381V10.2779H61.2091V17.3818H59.381Z" fill="white"/>
<path d="M67.2934 17.3818L66.9433 16.3589H64.1446L63.7945 17.3818H61.7246L64.3923 10.2779H66.6884L69.3657 17.3818H67.2934ZM65.5404 12.0885L64.6364 14.7608H66.4431L65.5404 12.0885Z" fill="white"/>
<path d="M72.1583 17.8327V10.4343H75.2068C76.4528 10.4343 77.2536 11.1549 77.2536 12.32C77.2536 13.2515 76.6196 13.8836 75.9523 14.0188C76.7417 14.1406 77.3984 14.9617 77.3984 15.838C77.3984 17.069 76.5976 17.8342 75.2736 17.8342L72.1583 17.8327ZM76.5863 12.3865C76.5863 11.632 76.0893 11.0112 75.1287 11.0112H72.7923V13.7506H75.1287C76.0858 13.7506 76.5863 13.1517 76.5863 12.3865ZM76.7283 15.792C76.7283 15.0374 76.205 14.3275 75.1706 14.3275H72.7923V17.2565H75.1735C76.1525 17.2565 76.7311 16.6903 76.7311 15.792H76.7283Z" fill="white"/>
<path d="M83.3016 17.8342L81.2186 14.7721H79.5841V17.8342H78.9467V10.4343H81.7182C82.9974 10.4343 83.9796 11.2442 83.9796 12.5979C83.9796 13.9431 83.0216 14.6836 81.9186 14.7282L84.0677 17.8342H83.3016ZM83.3122 12.595C83.3122 11.6626 82.6442 11.0084 81.6642 11.0084H79.582V14.1944H81.6642C82.6442 14.1951 83.3122 13.5296 83.3122 12.5979V12.595Z" fill="white"/>
<path d="M90.8439 17.8342L90.118 16.0146H86.2341L85.5082 17.8342H84.7822L87.7857 10.4343H88.5664L91.5706 17.8342H90.8439ZM88.1704 11.1083L86.4433 15.4348H89.9116L88.1704 11.1083Z" fill="white"/>
<path d="M92.0469 16.7795L92.4593 16.3041C92.7435 16.6401 93.0982 16.9103 93.4986 17.0958C93.8989 17.2812 94.3353 17.3775 94.777 17.3778C96.3034 17.3778 96.7378 16.5365 96.7378 15.905C96.7378 13.7358 92.2816 14.8646 92.2816 12.2856C92.2816 11.0792 93.3729 10.3149 94.7208 10.3149C95.8356 10.3149 96.6596 10.7027 97.2391 11.3561L96.816 11.8208C96.2807 11.1788 95.5235 10.8906 94.6881 10.8906C93.6964 10.8906 92.9498 11.4557 92.9498 12.2524C92.9498 14.1455 97.4061 13.1043 97.4061 15.8612C97.4061 16.8127 96.7713 17.9535 94.7656 17.9535C93.5399 17.9535 92.6157 17.4661 92.0469 16.7795Z" fill="white"/>
<path d="M98.9543 17.8342V10.4343H99.5498V17.8342H98.9543Z" fill="white"/>
<path d="M101.455 17.8342V10.4343H102.08V17.2578H105.624V17.8342H101.455Z" fill="white"/>
</g>
<defs>
<clipPath id="clip0_5213_252">
<rect width="104.802" height="22.319" fill="white" transform="translate(0.821289 0.289246)"/>
</clipPath>
</defs>
</svg>
