<svg width="62" height="9" viewBox="0 0 62 9" fill="none" xmlns="http://www.w3.org/2000/svg">
<path fill-rule="evenodd" clip-rule="evenodd" d="M5.04384 8.77576L5.0069 8.89726C4.92961 8.86523 4.85501 8.82706 4.78382 8.78313C4.60638 8.67227 4.45068 8.52998 4.32435 8.36322C4.28647 8.323 4.25739 8.27533 4.23893 8.22326C4.22048 8.17119 4.21307 8.11583 4.21717 8.06073C4.22127 8.00564 4.23678 7.952 4.26274 7.90323C4.28869 7.85446 4.32453 7.81165 4.36794 7.77747C4.42799 7.71895 4.49191 7.66405 4.5559 7.60909C4.60013 7.5711 4.64439 7.53308 4.68742 7.49383C4.73821 7.44844 4.78527 7.39902 4.82815 7.34609C4.86641 7.31013 4.88906 7.26062 4.89127 7.20816C4.89348 7.1557 4.87506 7.10445 4.83996 7.0654C4.75078 6.95218 4.65559 6.84382 4.55482 6.74078C4.49494 6.67742 4.43382 6.61553 4.37275 6.55369C4.30425 6.48432 4.2358 6.41502 4.16922 6.34375C4.09633 6.26574 4.04339 6.17125 4.0149 6.06836C3.98641 5.96547 3.98321 5.85723 4.0056 5.75284C4.0234 5.62599 4.03425 5.49826 4.03811 5.37022C4.03969 5.29877 4.01431 5.22934 3.96702 5.17575C3.91972 5.12216 3.85398 5.08835 3.78288 5.08103C3.71728 5.07663 3.65541 5.04894 3.60842 5.00297C3.56142 4.95699 3.53239 4.89574 3.52655 4.83025C3.5238 4.81557 3.52022 4.80126 3.51664 4.78692C3.51157 4.76663 3.50647 4.74626 3.50366 4.72462C3.49553 4.65738 3.46601 4.59455 3.41946 4.54535C3.37292 4.49615 3.3118 4.46318 3.24511 4.45133C3.19346 4.43726 3.14087 4.42479 3.08811 4.41228C2.99261 4.38964 2.89655 4.36686 2.80448 4.33427C2.71125 4.29882 2.62461 4.24799 2.54815 4.18394C2.49057 4.13904 2.44839 4.07734 2.42748 4.00739C2.40656 3.93744 2.40794 3.86269 2.43143 3.79356C2.45396 3.70898 2.42848 3.6654 2.3391 3.66947C2.23348 3.67509 2.12856 3.68992 2.02552 3.71378C1.85207 3.77391 1.66552 3.78567 1.4859 3.74778C1.33736 3.69432 1.19417 3.62705 1.0582 3.54686C0.901399 3.46399 0.763151 3.35001 0.65191 3.21189C0.593631 3.15143 0.554728 3.07493 0.540186 2.99222C0.525644 2.90952 0.536122 2.82436 0.570281 2.74764C0.630103 2.63255 0.726706 2.54077 0.844712 2.4869C0.895482 2.46046 0.947598 2.43646 0.999735 2.41245C1.05683 2.38615 1.11396 2.35984 1.16937 2.33031C1.2253 2.31165 1.27689 2.28192 1.3211 2.24291C1.3653 2.2039 1.40121 2.15641 1.42668 2.10324C1.45215 2.05007 1.46665 1.99233 1.46934 1.93344C1.47203 1.87455 1.46283 1.8157 1.44231 1.76043C1.40311 1.58371 1.39897 1.40101 1.43013 1.2227C1.4323 1.17077 1.44751 1.12023 1.47437 1.07572C1.50122 1.03122 1.53885 0.994192 1.58378 0.968065C1.62872 0.941938 1.67951 0.927554 1.73148 0.926227C1.78344 0.924901 1.8349 0.936691 1.88111 0.960491C1.96068 0.987315 2.03764 1.02198 2.11468 1.05668C2.16386 1.07883 2.21307 1.101 2.26301 1.12115C2.33512 1.15078 2.40916 1.17546 2.48462 1.19501C2.49751 1.19534 2.5103 1.1927 2.52201 1.18733C2.53373 1.18195 2.54405 1.17395 2.55221 1.16397C2.57643 1.13545 2.59182 1.1005 2.59647 1.06337C2.60113 1.02624 2.59487 0.988565 2.57844 0.954945C2.55854 0.9112 2.54235 0.865858 2.53005 0.819402C2.51336 0.764968 2.51419 0.706668 2.53242 0.652728C2.55064 0.598789 2.58533 0.551924 2.63162 0.518763C2.75039 0.419655 2.89535 0.357119 3.04894 0.338699C3.20253 0.32028 3.35817 0.346789 3.49701 0.415003C3.57993 0.44952 3.64617 0.514938 3.68168 0.597433C3.73598 0.724112 3.78842 0.852278 3.83385 0.982649C3.8401 1.00437 3.85303 1.02358 3.87079 1.03756C3.88855 1.05154 3.91025 1.0596 3.93284 1.06058C4.07282 1.07442 4.21415 1.06113 4.34909 1.02142C4.70504 0.949698 5.05148 0.836926 5.38143 0.685346C5.41388 0.667103 5.45016 0.656716 5.48735 0.65505C5.52454 0.653384 5.5616 0.660475 5.59555 0.675743C5.62951 0.691012 5.6594 0.714035 5.68283 0.742963C5.70626 0.771891 5.72258 0.805923 5.73046 0.842304C5.76851 0.99742 5.79695 1.15548 5.82317 1.31318C5.82993 1.37093 5.82868 1.42936 5.81948 1.48677C5.8081 1.54469 5.81948 1.60475 5.85126 1.65448C5.88305 1.70422 5.93278 1.7398 5.99012 1.7538C6.023 1.75711 6.05586 1.74743 6.08171 1.72684C6.13017 1.68783 6.17653 1.64627 6.22059 1.60237C6.24191 1.581 6.26813 1.56518 6.29698 1.55629C6.32582 1.54741 6.35641 1.54573 6.38606 1.5514C6.41265 1.5562 6.43943 1.56045 6.4662 1.5647C6.49298 1.56895 6.51976 1.5732 6.54635 1.578C6.63772 1.59086 6.72251 1.63282 6.78812 1.6977C6.85372 1.76257 6.89666 1.84687 6.91054 1.93808C6.94969 2.11351 6.98404 2.14972 7.16354 2.16744C7.3364 2.1848 7.50851 2.19624 7.68063 2.20437C7.92539 2.20615 8.16924 2.23451 8.40788 2.28894C8.51291 2.30913 8.61282 2.35024 8.70165 2.40981C8.79048 2.46939 8.86642 2.54623 8.92496 2.63575C9.02683 2.80375 9.06705 3.00194 9.03873 3.19636H8.96485C8.98307 3.04998 8.95857 2.90147 8.8943 2.7687C8.84679 2.67418 8.77776 2.59214 8.69277 2.52915C8.60777 2.46616 8.50918 2.42399 8.40492 2.40602C8.19283 2.36129 7.97639 2.34046 7.75967 2.34397C7.55111 2.33954 7.3428 2.33142 7.13473 2.3196C7.07696 2.31367 7.02015 2.30066 6.96557 2.28083C6.91404 2.26585 6.86787 2.23643 6.83253 2.19605C6.79718 2.15567 6.77414 2.10601 6.76612 2.05295C6.71588 1.79775 6.64054 1.76451 6.3868 1.73865C6.36583 1.73972 6.34592 1.74824 6.33066 1.76266C6.30822 1.78163 6.28664 1.80165 6.26508 1.82165C6.23374 1.85071 6.20242 1.87976 6.16852 1.90558C6.13481 1.93326 6.09413 1.95114 6.05094 1.95726C6.00775 1.96339 5.9637 1.95753 5.92363 1.94031C5.82988 1.91413 5.74809 1.8563 5.69214 1.77666C5.63619 1.69702 5.60953 1.60045 5.6167 1.50339C5.62391 1.30872 5.59563 1.11437 5.53323 0.929834C5.52141 0.88293 5.49851 0.881077 5.45936 0.900282C5.18316 1.03393 4.89407 1.13913 4.59656 1.21422C4.43424 1.25819 4.26896 1.2904 4.102 1.31061C3.9922 1.31879 3.8818 1.30831 3.7755 1.27959C3.7199 1.25822 3.6744 1.21668 3.64807 1.16325C3.60145 1.06572 3.56015 0.96572 3.52434 0.863719C3.52298 0.85998 3.52187 0.856153 3.52102 0.852268C3.45269 0.59448 3.23735 0.578229 3.05046 0.611838C2.97354 0.633721 2.8998 0.665518 2.83107 0.7064C2.8235 0.709316 2.81669 0.713903 2.81115 0.719835C2.80562 0.725767 2.80151 0.732887 2.79913 0.740641C2.79674 0.748395 2.79615 0.756587 2.7974 0.764603C2.79865 0.772619 2.8017 0.780233 2.80633 0.786897C2.82631 0.828443 2.84285 0.871551 2.85581 0.91579C2.8788 0.996491 2.88011 1.08184 2.85962 1.16321C2.83913 1.24458 2.79757 1.3191 2.7391 1.37929C2.69588 1.42665 2.63913 1.45958 2.57656 1.47359C2.51398 1.48759 2.44861 1.48202 2.38932 1.4576C2.29276 1.42698 2.19901 1.38728 2.10519 1.34754C2.0587 1.32785 2.01219 1.30816 1.96532 1.28955C1.93312 1.27652 1.90007 1.26485 1.86692 1.25315C1.83808 1.24297 1.80916 1.23276 1.78064 1.22159C1.73337 1.20313 1.72265 1.22676 1.71342 1.26701C1.69097 1.40779 1.69335 1.55143 1.72044 1.69138C1.73886 1.80576 1.74616 1.92164 1.74223 2.03742C1.73088 2.1378 1.69512 2.23388 1.63808 2.31726C1.58103 2.40063 1.50443 2.46877 1.41498 2.51571C1.3493 2.55631 1.27961 2.59058 1.2098 2.6249C1.17164 2.64366 1.13346 2.66244 1.09587 2.68227C1.02729 2.71461 0.961013 2.75163 0.89752 2.79307C0.877234 2.80303 0.85968 2.81777 0.846369 2.83603C0.833058 2.85429 0.824393 2.87553 0.82112 2.89789C0.817848 2.92024 0.820071 2.94307 0.82759 2.96438C0.83511 2.98569 0.847699 3.00484 0.86428 3.0202C0.949636 3.12971 1.05553 3.22153 1.17602 3.29054C1.22606 3.32232 1.27792 3.35105 1.32976 3.37977C1.35865 3.39578 1.38754 3.41179 1.41609 3.42832C1.49237 3.46672 1.57557 3.48941 1.66078 3.49506C1.74599 3.50071 1.83145 3.48918 1.91213 3.46118C2.04996 3.41789 2.19352 3.39548 2.33799 3.39471C2.441 3.39916 2.53965 3.43745 2.61869 3.50365C2.66016 3.53436 2.69157 3.57669 2.70893 3.62528C2.72629 3.67388 2.72882 3.72655 2.7162 3.77659C2.71262 3.80233 2.70707 3.82777 2.69959 3.85266C2.68767 3.88173 2.68667 3.91411 2.69679 3.94384C2.70691 3.97358 2.72745 3.99866 2.75461 4.01442C2.85267 4.08121 2.96452 4.12501 3.08185 4.14257L3.08206 4.14262C3.16953 4.16403 3.25699 4.18543 3.34298 4.212C3.45483 4.24076 3.55508 4.30334 3.63004 4.39119C3.705 4.47903 3.75102 4.58788 3.76183 4.70285C3.76277 4.70881 3.76437 4.71516 3.76601 4.72169C3.76884 4.73298 3.7718 4.7448 3.7718 4.75602C3.7766 4.8081 3.80283 4.8299 3.85638 4.84504C3.97676 4.86884 4.08507 4.93386 4.16267 5.02891C4.24026 5.12396 4.28229 5.24308 4.28151 5.36578C4.27754 5.51201 4.26309 5.65779 4.23829 5.80196C4.22226 5.87255 4.2235 5.94596 4.24189 6.01597C4.26027 6.08599 4.29528 6.15054 4.34393 6.20415C4.40919 6.27479 4.47567 6.34441 4.54218 6.41406C4.63076 6.50682 4.71939 6.59963 4.80524 6.69497C4.88768 6.78234 4.96118 6.87773 5.02463 6.97972C5.07745 7.05744 5.10033 7.15166 5.08906 7.24495C5.07779 7.33823 5.03313 7.42427 4.96333 7.48718C4.89307 7.55931 4.81544 7.62423 4.73784 7.68912C4.69386 7.72589 4.64989 7.76266 4.60727 7.80074C4.54829 7.8519 4.49265 7.9068 4.4407 7.96509C4.40947 7.99854 4.39067 8.04169 4.38745 8.08733C4.38422 8.13298 4.39676 8.17833 4.42296 8.21584C4.52145 8.37513 4.65064 8.51324 4.80302 8.62211C4.88054 8.67752 4.96092 8.72881 5.04384 8.77576ZM56.8837 7.14669C56.8837 7.79153 56.445 8.44966 55.2483 8.44966C54.4771 8.44966 53.912 8.15716 53.5463 7.74499L53.8721 7.32618C54.1646 7.65192 54.6433 7.95772 55.2682 7.95772C56.0593 7.95772 56.312 7.53226 56.312 7.19322C56.312 6.66783 55.7575 6.51719 55.1582 6.35434C54.4531 6.16279 53.6859 5.95434 53.6859 5.09916C53.6859 4.3679 54.3374 3.86931 55.2084 3.86931C55.8865 3.86931 56.4117 4.09534 56.784 4.48756L56.4516 4.89307C56.1192 4.52744 55.6538 4.36125 55.1685 4.36125C54.6366 4.36125 54.2577 4.64711 54.2577 5.06592C54.2577 5.50167 54.7591 5.63783 55.3238 5.79115C56.0513 5.9887 56.8837 6.21472 56.8837 7.14669ZM7.62288 5.10581V8.36989H6.27992V5.10581H5.08988V3.93579H8.80627V5.10581H7.62288ZM12.4477 6.801L13.2522 8.36989H11.7231L11.1114 6.97385H10.6261V8.36989H9.28313V3.93579H11.6499C12.6871 3.93579 13.2455 4.62716 13.2455 5.45814C13.2455 6.22264 12.8001 6.62816 12.4477 6.801ZM10.6261 5.80383H11.4438C11.6699 5.80383 11.8826 5.69746 11.8826 5.45149C11.8826 5.21217 11.6699 5.10581 11.4438 5.10581H10.6261V5.80383ZM18.2699 8.36989L16.6344 3.93579H14.9457L13.3102 8.36989H14.8327L14.9922 7.85136H16.5878L16.7474 8.36989H18.2699ZM16.2288 6.68134H15.3513L15.79 5.25206L16.2288 6.68134ZM22.6043 7.16663C22.6043 7.78488 22.1854 8.36989 21.2946 8.36989H18.5089V3.93579H21.2015C22.119 3.93579 22.5179 4.54739 22.5179 5.06592C22.5179 5.61769 22.1921 5.98997 21.7599 6.08304C22.2386 6.15616 22.6043 6.59492 22.6043 7.16663ZM19.8519 5.57115H20.889C21.0286 5.57115 21.155 5.46479 21.155 5.30524C21.155 5.15234 21.0286 5.05262 20.889 5.05262H19.8519V5.57115ZM19.8519 7.25305H20.9289C21.1217 7.25305 21.2414 7.14004 21.2414 6.97385C21.2414 6.8143 21.1217 6.68799 20.9289 6.68799H19.8519V7.25305ZM27.6255 8.36989L25.99 3.93579H24.3014L22.6659 8.36989H24.1883L24.3479 7.85136H25.9435L26.103 8.36989H27.6255ZM25.5845 6.68134H24.7069L25.1457 5.25206L25.5845 6.68134ZM30.8896 7.19987V8.36989H27.8646V3.93579H29.2075V7.19987H30.8896ZM35.7038 8.36989V3.93579H34.3608V5.50467H32.7719V3.93579H31.4289V8.36989H32.7719V6.67469H34.3608V8.36989H35.7038ZM39.2671 3.93579L40.9026 8.36989H39.3801L39.2206 7.85136H37.625L37.4654 8.36989H35.943L37.5785 3.93579H39.2671ZM37.984 6.68134H38.8616L38.4228 5.25206L37.984 6.68134ZM43.3223 8.36989C44.1334 8.36989 44.6054 7.8846 44.6054 7.17328C44.6054 6.64145 44.2132 6.15616 43.7412 6.08304C44.1467 5.99661 44.519 5.62434 44.519 5.06592C44.519 4.40114 44.047 3.93579 43.2758 3.93579H41.3012V8.36989H43.3223ZM43.1827 5.85701H41.8531V4.42773H43.1827C43.6813 4.42773 43.9473 4.74682 43.9473 5.14569C43.9473 5.55121 43.6813 5.85701 43.1827 5.85701ZM43.2093 7.87795H41.8531V6.34895H43.2093C43.7545 6.34895 44.0337 6.70793 44.0337 7.11345C44.0337 7.58545 43.7279 7.87795 43.2093 7.87795ZM47.5035 6.56168L48.7002 8.36989H48.0486L46.9184 6.60821H46.0342V8.36989H45.4824V3.93579H47.2641C48.0752 3.93579 48.6536 4.45432 48.6536 5.272C48.6536 6.06974 48.1085 6.5085 47.5035 6.56168ZM46.0342 6.12292H47.1977C47.7229 6.12292 48.0819 5.77059 48.0819 5.272C48.0819 4.77341 47.7229 4.42773 47.1977 4.42773H46.0342V6.12292ZM53.3234 8.36989L51.535 3.93579H50.8502L49.0685 8.36989H49.7001L50.0923 7.38601H52.2995L52.6918 8.36989H53.3234ZM52.1333 6.89407H50.2519L51.1959 4.5075L52.1333 6.89407ZM58.2595 8.36989V3.93579H57.7077V8.36989H58.2595ZM61.9111 7.87795V8.36989H59.2984V3.93579H59.8502V7.87795H61.9111Z" fill="black" fill-opacity="0.6"/>
</svg>
